HIERARCHY
ROOT hip
{
	OFFSET 0.000000 0.000000 0.000000 
	CHANNELS 6 Xposition Yposition Zposition Xrotation Zrotation Yrotation
	JOINT abdomen
	{
		OFFSET 0.000000 3.402643 0.000000 
		CHANNELS 3 Xrotation Zrotation Yrotation
		JOINT chest
		{
			OFFSET 0.000000 8.438565 -0.680529 
			CHANNELS 3 Xrotation Zrotation Yrotation
			JOINT neck
			{
				OFFSET 0.000000 10.207942 -0.272212 
				CHANNELS 3 Xrotation Zrotation Yrotation
				JOINT head
				{
					OFFSET 0.000000 3.130431 0.000000 
					CHANNELS 3 Xrotation Zrotation Yrotation
					End Site
					{
						OFFSET 0.000000 3.130435 0.000000 
					}
				}
			}
			JOINT lCollar
			{
				OFFSET 3.470700 6.669187 -0.816635 
				CHANNELS 3 Yrotation Zrotation Xrotation
				JOINT lShldr
				{
					OFFSET 3.198488 0.000000 0.000000 
					CHANNELS 3 Zrotation Yrotation Xrotation
					JOINT lForeArm
					{
						OFFSET 10.139888 0.000000 0.000000 
						CHANNELS 3 Yrotation Zrotation Xrotation
						JOINT lHand
						{
							OFFSET 8.370511 0.000000 0.000000 
							CHANNELS 3 Zrotation Yrotation Xrotation
							End Site
							{
								OFFSET 4.083176 0.000000 0.000000 
							}
						}
					}
				}
			}
			JOINT rCollar
			{
				OFFSET -3.470700 6.669187 -0.816635 
				CHANNELS 3 Yrotation Zrotation Xrotation
				JOINT rShldr
				{
					OFFSET -3.198488 0.000000 0.000000 
					CHANNELS 3 Zrotation Yrotation Xrotation
					JOINT rForeArm
					{
						OFFSET -10.139888 0.000000 0.000000 
						CHANNELS 3 Yrotation Zrotation Xrotation
						JOINT rHand
						{
							OFFSET -8.370511 0.000000 0.000000 
							CHANNELS 3 Zrotation Yrotation Xrotation
							End Site
							{
								OFFSET -4.083176 0.000000 0.000000 
							}
						}
					}
				}
			}
		}
	}
	JOINT lThigh
	{
		OFFSET 5.308129 -1.633274 1.361059 
		CHANNELS 3 Xrotation Zrotation Yrotation
		JOINT lShin
		{
			OFFSET -2.041588 -20.007561 0.000000 
			CHANNELS 3 Xrotation Zrotation Yrotation
			JOINT lFoot
			{
				OFFSET 0.000000 -19.190928 -1.224953 
				CHANNELS 3 Xrotation Yrotation Zrotation
				End Site
				{
					OFFSET 0.000000 -2.449906 4.627600 
				}
			}
		}
	}
	JOINT rThigh
	{
		OFFSET -5.308129 -1.633274 1.361059 
		CHANNELS 3 Xrotation Zrotation Yrotation
		JOINT rShin
		{
			OFFSET 2.041588 -20.007561 0.000000 
			CHANNELS 3 Xrotation Zrotation Yrotation
			JOINT rFoot
			{
				OFFSET 0.000000 -19.190928 -1.224953 
				CHANNELS 3 Xrotation Yrotation Zrotation
				End Site
				{
					OFFSET 0.000000 -2.449906 4.627600 
				}
			}
		}
	}
}
MOTION
Frames: 17
Frame Time: 0.033333
-0.969448 49.640675 -3.031448 -0.292969 -0.087889 0.107871 0.000000 0.000000 0.000000 -4.130860 -0.029221 0.011876 4.697329 0.189468 -0.054721 5.683580 -0.175553 0.048017 0.488393 10.230145 -3.252641 -2.962721 11.640923 -16.089079 1.618778 -9.914448 22.926287 3.710670 -2.917873 -3.607231 -0.353743 -9.024801 -3.242996 1.430284 -15.911961 -2.966921 -1.329565 3.301491 9.888707 -0.558605 3.610730 -3.431627 3.756693 5.680217 1.575001 -1.132095 -4.093596 -2.654857 -0.009907 -0.016773 0.400987 3.802187 -3.666192 -4.097883 -1.142280 3.621566 -4.323417 -0.964836 -0.004945 -1.290709 
-0.994742 49.648602 -3.029522 -0.322267 -0.166013 0.176715 0.000000 0.000000 0.000000 -4.140625 -0.009740 0.020235 4.629230 0.411302 -0.070132 5.683436 -0.594930 0.206126 0.445683 10.623696 -3.259976 -3.230092 11.502681 -16.208885 1.688983 -9.875575 23.092314 3.763666 -2.826459 -3.610566 -0.295645 -8.705448 -3.246331 1.233640 -16.097586 -3.006613 -1.333957 3.320191 9.596202 -0.977352 3.888863 -3.457002 3.894563 5.799177 1.682267 -1.434985 -4.106104 -2.602985 0.446440 -0.018156 0.191348 4.094363 -3.578203 -4.107557 -1.668461 3.697921 -4.343301 -0.688500 -0.000953 -1.235633 
-1.028849 49.647346 -3.043188 -0.185547 -0.146484 0.166490 0.000000 0.000000 0.000000 -4.287109 0.000000 0.000000 4.511900 0.363589 -0.030956 5.751778 -0.633980 0.246422 0.435278 10.683482 -3.394122 -3.371536 11.579029 -16.403854 1.573603 -9.729517 24.083855 3.047710 -3.908621 -3.579659 -0.286706 -8.980329 -3.386548 1.562153 -16.126139 -3.120441 -1.314827 3.281467 9.584037 -1.239360 3.843685 -3.472126 3.856194 5.790587 1.593347 -1.679899 -4.040599 -2.654913 0.515958 -0.016165 0.160780 3.845909 -3.573256 -4.076905 -1.462899 3.706197 -4.328989 -0.669046 0.000117 -1.172334 
-1.064460 49.651497 -3.068584 -0.166016 -0.019531 0.312557 0.000000 0.000000 0.000000 -4.326181 -0.116854 -0.118113 4.618421 0.310210 -0.121910 5.458767 -0.672813 0.329931 0.253643 10.558901 -3.431127 -3.039242 11.680832 -15.946863 1.599501 -9.973113 23.365725 3.407238 -3.700207 -3.599710 -0.420620 -8.941775 -3.428091 1.453234 -16.028599 -3.124515 -1.272828 3.299843 9.436720 -0.915194 3.833907 -3.452831 3.734961 5.705650 1.568279 -1.563041 -4.100380 -2.817727 0.235623 -0.018145 0.316691 3.795493 -3.619678 -4.073661 -1.404596 3.630245 -4.488637 -0.685075 -0.013893 -1.167338 
-1.091894 49.616138 -3.081520 -0.146485 -0.117187 0.303034 0.000000 0.000000 0.000000 -4.365234 -0.009737 -0.116444 4.579573 0.386205 -0.154194 5.497807 -0.711844 0.282760 0.215490 10.746930 -3.460337 -3.180338 11.708465 -16.129755 1.593470 -9.778154 24.539141 3.453827 -4.127819 -3.612611 -0.322957 -8.938297 -3.453322 1.553572 -16.223610 -3.181591 -1.219878 3.257154 9.168761 -0.992493 3.653148 -3.457488 4.402518 5.857597 1.519977 -2.793252 -3.973014 -4.061231 -0.421177 -0.011470 0.821871 3.336639 -3.512450 -3.992375 -0.544695 3.614049 -4.642599 -1.023186 -0.001324 -1.205714 
-1.107627 49.637402 -3.096848 0.058594 -0.175781 0.370884 0.000000 0.000000 0.000000 -4.541017 0.048675 -0.140585 4.491543 0.499695 -0.198251 5.458677 -0.799576 0.297832 0.186249 11.082715 -3.609893 -3.598593 11.734703 -16.396847 1.522211 -9.723107 23.125607 3.591103 -2.886274 -3.600538 -0.408562 -8.904074 -3.606473 1.719456 -16.251293 -3.592546 -1.254936 3.127613 9.370309 -1.260678 3.871744 -3.473947 3.837271 5.908491 1.506525 -2.109272 -3.952775 -3.740823 -0.008887 0.000076 0.522271 3.581244 -3.405937 -3.893694 -1.521818 3.599761 -4.818191 -0.850510 -0.001467 -1.267921 
-1.099821 49.642185 -3.113659 0.009766 -0.107422 0.478479 0.000000 0.000000 0.000000 -4.492188 0.038943 -0.188606 4.471537 0.546930 -0.230842 5.751588 -0.916832 0.377697 0.071042 10.953074 -3.569198 -3.336639 11.689038 -16.059431 1.499016 -9.911750 22.632683 3.795410 -2.863594 -3.612238 -0.414442 -8.815032 -3.562503 1.738546 -16.397949 -3.535464 -1.213830 3.026527 9.716715 -1.119471 3.645482 -3.465093 3.356143 5.815866 1.546985 -1.357869 -4.022143 -2.737545 0.585706 -0.011569 0.079074 3.494927 -3.494945 -3.954840 -1.258511 3.629365 -4.722401 -0.673630 0.007134 -1.169644 
-1.108254 49.644447 -3.134110 -0.039063 -0.146484 0.468850 0.000000 0.000000 0.000000 -4.414072 0.116840 -0.165269 4.472019 0.503510 -0.137263 5.634640 -0.526636 0.281218 0.138152 10.898796 -3.499152 -3.366490 11.522511 -16.118322 1.413389 -9.836919 23.738430 3.069693 -3.946388 -3.580792 -0.518375 -8.681880 -3.507563 1.677809 -16.300591 -3.470865 -1.277078 3.128434 9.517597 -1.261551 3.724937 -3.473886 3.188741 5.881335 1.615722 -0.927302 -4.054635 -2.817383 0.458409 -0.012525 0.099594 3.494880 -3.456368 -3.931450 -1.229252 3.629269 -4.749626 -0.638643 0.002724 -1.160743 
-1.130025 49.657032 -3.142756 -0.400393 -0.175777 0.528572 0.000000 0.000000 0.000000 -4.140640 0.155842 -0.245657 4.754977 0.513721 -0.065355 5.478424 -0.438800 0.375519 0.067096 10.891328 -3.246477 -3.405134 11.479334 -16.668261 1.583025 -9.656295 23.417234 3.583807 -2.925874 -3.599981 -0.511707 -8.838280 -3.254484 1.975222 -16.319557 -3.507813 -1.235068 3.048702 9.835524 -0.929425 3.744999 -3.454011 3.803760 5.960995 1.640987 -1.278594 -4.005978 -3.740293 0.075884 -0.003819 0.364022 3.920623 -3.364753 -3.925368 -1.405823 3.572539 -4.945906 -0.767718 0.005514 -1.254398 
-1.130528 49.610222 -3.154144 -0.263672 -0.068359 0.517893 0.000000 0.000000 0.000000 -4.277351 0.107123 -0.213090 4.637887 0.458387 -0.013100 5.703094 -0.263334 0.345373 0.035571 10.620350 -3.363921 -3.110809 11.479623 -16.731508 1.547209 -9.487922 24.917896 2.728373 -3.977420 -3.560995 -0.484573 -8.771523 -3.379435 1.677523 -16.361050 -2.912254 -1.236906 3.339839 9.104467 -0.947783 3.724327 -3.455184 4.363448 5.838329 1.459572 -2.733248 -3.892588 -4.001226 -0.548736 -0.007378 0.907487 3.051412 -3.500034 -3.933570 0.117136 3.523741 -4.829516 -1.226763 -0.000588 -1.248192 
-1.135562 49.640041 -3.173297 -0.146485 -0.097656 0.586187 0.000000 0.000000 0.000000 -4.345716 0.136326 -0.264266 4.510640 0.526582 -0.016786 5.878833 -0.419447 0.449649 0.103299 10.881450 -3.439714 -3.426231 11.380819 -16.775948 1.527108 -9.512376 24.837650 2.493817 -4.148500 -3.547486 -0.520043 -8.700637 -3.437172 1.701810 -16.340677 -3.160012 -1.320347 3.277544 9.339993 -1.345041 3.807929 -3.478539 3.180561 5.874553 1.615101 -0.772082 -4.080277 -3.091029 0.224572 -0.012969 0.224719 3.423798 -3.453216 -3.924272 -0.916070 3.567992 -4.833526 -0.713932 -0.011546 -1.145608 
-1.127887 49.641937 -3.185895 -0.166016 -0.029297 0.546960 0.000000 0.000000 0.000000 -4.316413 0.107117 -0.271757 4.481301 0.512359 0.123883 5.966736 -0.390211 0.584376 0.093829 10.793771 -3.401529 -3.232124 11.394188 -16.354586 1.504850 -9.714773 24.433397 2.958564 -4.051166 -3.574024 -0.573909 -8.716833 -3.404749 1.793380 -16.173988 -3.320049 -1.325465 3.204815 9.561658 -1.342338 3.602636 -3.478511 3.452434 5.794870 1.572776 -1.396103 -4.086684 -2.889602 0.437359 -0.017886 0.170595 3.338389 -3.573437 -4.027517 -0.750205 3.635836 -4.755139 -0.699124 -0.006198 -1.122547 
-1.149028 49.640800 -3.190688 -0.322266 -0.117186 0.528003 0.000000 0.000000 0.000000 -4.199241 0.185049 -0.267493 4.628057 0.521198 0.130968 5.703101 -0.234075 0.519672 0.040293 10.668517 -3.296309 -2.940007 11.403265 -16.546751 1.634609 -9.619164 24.440165 2.960413 -3.610741 -3.574380 -0.559889 -8.688603 -3.297816 1.731090 -16.174616 -3.160900 -1.235882 3.227206 9.490867 -1.167716 3.632782 -3.468016 3.495347 5.937364 1.654058 -1.006125 -4.077906 -3.523062 0.120249 -0.013702 0.318472 3.550577 -3.433289 -3.937032 -0.886109 3.568531 -4.763144 -0.865162 -0.009294 -1.229119 
-1.158339 49.604813 -3.198667 -0.214844 -0.087890 0.459314 0.000000 0.000000 0.000000 -4.267592 0.146078 -0.235510 4.530469 0.498724 0.148942 5.732400 -0.224327 0.509297 0.154064 10.809120 -3.368989 -2.987893 11.345049 -16.478535 1.603218 -9.676863 23.704947 3.158079 -3.011314 -3.575821 -0.461004 -8.704277 -3.363590 1.630945 -16.145666 -3.097341 -1.294122 3.266575 9.504495 -1.149664 3.496904 -3.466838 4.247095 5.907725 1.528078 -2.693482 -3.959500 -4.118349 -0.357469 -0.011397 0.790361 2.782422 -3.476186 -3.882663 0.429541 3.517592 -4.700338 -1.228433 0.000097 -1.237442 
-1.151546 49.656033 -3.209213 -0.273438 -0.068359 0.508139 0.000000 0.000000 0.000000 -4.218764 0.146087 -0.264682 4.608381 0.505453 0.073489 5.751913 -0.302360 0.483811 0.129568 10.869114 -3.322396 -3.054491 11.287203 -16.354654 1.494315 -9.755515 24.257727 3.222356 -4.034695 -3.589243 -0.501673 -8.691824 -3.316825 1.673424 -16.066921 -3.265008 -1.245967 3.207853 9.490452 -1.234594 3.442846 -3.472097 3.554306 5.859704 1.606036 -1.377013 -4.069445 -3.125207 0.340620 0.005822 0.231710 3.441051 -3.489489 -3.966573 -0.797533 3.575357 -4.669282 -0.767798 0.002849 -1.192604 
-1.151671 49.648354 -3.202958 -0.322266 -0.019531 0.507922 0.000000 0.000000 0.000000 -4.199224 0.097394 -0.221995 4.647590 0.461650 0.053383 5.546800 -0.399821 0.451037 0.076047 10.950052 -3.303027 -3.074070 11.296986 -16.345951 1.575101 -9.663795 24.931141 2.949404 -4.061520 -3.574149 -0.421142 -8.735863 -3.301737 1.602430 -16.184574 -3.154599 -1.238811 3.226464 9.656917 -1.684346 3.904692 -3.508679 3.512132 5.816089 1.612913 -1.181696 -4.088214 -2.904592 0.230135 -0.013225 0.266366 3.432736 -3.559555 -4.032596 -0.661453 3.623026 -4.494816 -0.730670 -0.002473 -1.142167 
-1.152551 49.646217 -3.197157 -0.312500 -0.039062 0.449432 0.000000 0.000000 0.000000 -4.228524 0.116869 -0.213719 4.657626 0.369045 0.020573 5.556630 -0.156029 0.301274 0.122672 11.006149 -3.329350 -3.015551 11.365361 -16.362995 1.557079 -9.479625 25.935701 2.454040 -4.297725 -3.545372 -0.341396 -8.672177 -3.319236 1.442331 -16.146029 -3.056072 -1.255040 3.213503 10.018786 -1.728806 3.990034 -3.511660 3.598580 5.833405 1.622823 -1.367302 -4.078375 -2.988948 0.423475 0.009788 0.180979 3.387281 -3.533917 -4.012027 -0.594082 3.626461 -4.538917 -0.727650 -0.003943 -1.153192 
